<?xml version="1.0" encoding="UTF-8"?><svg id="a" xmlns="http://www.w3.org/2000/svg" viewBox="0 0 1000 1180"><defs><style>.b{fill:#87b9b4;}.b,.c,.d{stroke-width:0px;}.c{fill:#9b1868;}.d{fill:#9b1469;}</style></defs><path class="c" d="M266.74,1016.36c-3.7,0-6.84-.64-9.43-1.93-2.59-1.29-4.6-3.14-6.02-5.57-1.43-2.43-2.2-5.33-2.32-8.71-.04-1.73-.06-3.58-.06-5.57s.02-3.86.06-5.63c.12-3.33.89-6.18,2.32-8.55s3.45-4.2,6.08-5.48c2.63-1.29,5.75-1.93,9.37-1.93,2.93,0,5.5.39,7.71,1.17,2.21.78,4.05,1.79,5.51,3.01,1.46,1.23,2.57,2.54,3.31,3.95.74,1.41,1.13,2.71,1.18,3.91.04.36-.06.66-.3.91s-.56.36-.96.36h-6.2c-.4,0-.7-.08-.9-.24-.2-.16-.38-.4-.54-.72-.32-.84-.82-1.68-1.51-2.5-.68-.82-1.61-1.52-2.77-2.08-1.17-.56-2.67-.84-4.52-.84-2.73,0-4.91.72-6.54,2.17-1.63,1.45-2.5,3.83-2.62,7.17-.12,3.49-.12,7.03,0,10.6.12,3.41,1.01,5.86,2.68,7.35,1.67,1.49,3.87,2.23,6.6,2.23,1.81,0,3.42-.32,4.85-.96s2.55-1.65,3.37-3.01c.82-1.37,1.23-3.11,1.23-5.24v-1.87h-7.35c-.4,0-.74-.14-1.02-.42-.28-.28-.42-.64-.42-1.08v-3.19c0-.44.14-.8.42-1.09.28-.28.62-.42,1.02-.42h14.4c.44,0,.79.14,1.05.42.26.28.39.64.39,1.09v6.32c0,3.37-.73,6.29-2.2,8.74-1.47,2.45-3.55,4.34-6.27,5.66-2.71,1.32-5.91,1.99-9.61,1.99Z"/><path class="c" d="M303.31,1016.36c-2.09,0-3.98-.41-5.66-1.24-1.69-.82-3.02-1.93-4.01-3.31s-1.48-2.94-1.48-4.67c0-2.81,1.14-5.05,3.43-6.72,2.29-1.67,5.28-2.78,8.98-3.34l8.25-1.21v-1.27c0-1.69-.42-2.99-1.27-3.92-.84-.92-2.29-1.38-4.34-1.38-1.45,0-2.62.29-3.52.87-.9.58-1.58,1.36-2.02,2.32-.32.52-.78.78-1.39.78h-4.76c-.44,0-.77-.12-.99-.36s-.33-.56-.33-.96c.04-.64.31-1.43.81-2.35.5-.92,1.27-1.82,2.29-2.68,1.02-.86,2.36-1.6,4.01-2.2s3.63-.9,5.96-.9c2.53,0,4.67.31,6.42.93s3.14,1.46,4.19,2.5c1.04,1.05,1.81,2.27,2.29,3.67.48,1.41.72,2.89.72,4.46v18.92c0,.4-.14.74-.42,1.02s-.62.42-1.02.42h-4.88c-.44,0-.79-.14-1.05-.42-.26-.28-.39-.62-.39-1.02v-2.35c-.52.72-1.23,1.43-2.11,2.11-.88.68-1.96,1.23-3.22,1.66-1.26.42-2.76.63-4.49.63ZM305.36,1010.63c1.41,0,2.68-.3,3.83-.91,1.14-.6,2.05-1.54,2.71-2.8.66-1.27.99-2.86.99-4.79v-1.26l-6.02.96c-2.37.36-4.14.94-5.3,1.75-1.17.8-1.75,1.79-1.75,2.95,0,.88.27,1.64.81,2.26.54.62,1.24,1.08,2.08,1.38.84.3,1.73.45,2.65.45Z"/><path class="c" d="M342.89,1016.36c-2.41,0-4.47-.28-6.17-.84-1.71-.56-3.1-1.26-4.19-2.11-1.08-.84-1.89-1.69-2.41-2.53-.52-.84-.8-1.55-.84-2.11-.04-.44.09-.79.39-1.06.3-.26.63-.39.99-.39h4.76c.16,0,.3.02.42.06s.28.16.48.36c.52.44,1.07.91,1.66,1.39s1.27.89,2.08,1.24c.8.34,1.81.51,3.01.51,1.57,0,2.88-.31,3.95-.93,1.06-.62,1.6-1.51,1.6-2.68,0-.84-.23-1.53-.69-2.05-.46-.52-1.32-.99-2.56-1.42-1.25-.42-3.01-.87-5.3-1.35-2.25-.52-4.12-1.18-5.6-1.99-1.49-.8-2.59-1.81-3.31-3.01-.72-1.21-1.08-2.61-1.08-4.22s.47-3.06,1.41-4.49c.94-1.42,2.35-2.6,4.22-3.52,1.87-.92,4.19-1.38,6.96-1.38,2.17,0,4.06.27,5.66.81,1.61.54,2.94,1.21,4.01,2.02,1.06.8,1.88,1.62,2.44,2.44.56.82.86,1.54.9,2.14.04.44-.08.79-.36,1.05-.28.26-.6.39-.96.39h-4.46c-.2,0-.38-.04-.54-.12-.16-.08-.32-.18-.48-.3-.44-.4-.92-.83-1.45-1.3s-1.15-.85-1.9-1.17c-.74-.32-1.72-.48-2.92-.48-1.53,0-2.69.33-3.49.99-.8.66-1.21,1.5-1.21,2.5,0,.68.19,1.28.57,1.78.38.5,1.15.97,2.32,1.42,1.16.44,2.93.9,5.3,1.39,2.69.48,4.83,1.19,6.42,2.14,1.59.94,2.71,2.03,3.37,3.25.66,1.22.99,2.58.99,4.07,0,1.81-.53,3.43-1.6,4.88-1.06,1.45-2.63,2.58-4.7,3.4-2.07.82-4.63,1.24-7.68,1.24Z"/><path class="c" d="M379.51,1015.75c-2.41,0-4.44-.42-6.08-1.26-1.65-.84-2.87-2.1-3.67-3.77-.8-1.67-1.21-3.75-1.21-6.24v-13.68h-4.76c-.4,0-.74-.14-1.02-.42-.28-.28-.42-.64-.42-1.08v-3.43c0-.4.14-.74.42-1.02.28-.28.62-.42,1.02-.42h4.76v-10c0-.4.13-.74.39-1.02.26-.28.61-.42,1.05-.42h4.88c.4,0,.74.14,1.02.42.28.28.42.62.42,1.02v10h7.53c.4,0,.74.14,1.02.42.28.28.42.62.42,1.02v3.43c0,.44-.14.8-.42,1.08s-.62.42-1.02.42h-7.53v13.07c0,1.65.29,2.93.87,3.86.58.93,1.6,1.39,3.04,1.39h4.16c.4,0,.74.14,1.02.42.28.28.42.62.42,1.03v3.73c0,.4-.14.74-.42,1.02-.28.28-.62.42-1.02.42h-4.88Z"/><path class="c" d="M398.43,1015.75c-.4,0-.74-.14-1.02-.42-.28-.28-.42-.62-.42-1.02v-23.5h-4.88c-.4,0-.74-.14-1.02-.42-.28-.28-.42-.64-.42-1.08v-3.43c0-.4.14-.74.42-1.02.28-.28.62-.42,1.02-.42h4.88v-2.47c0-2.41.44-4.41,1.33-5.99.88-1.59,2.19-2.78,3.92-3.58,1.73-.8,3.91-1.2,6.57-1.2h4.1c.44,0,.79.14,1.05.42.26.28.39.62.39,1.02v3.43c0,.44-.13.8-.39,1.08-.26.28-.61.42-1.05.42h-3.86c-1.61,0-2.71.4-3.31,1.21-.6.8-.9,1.97-.9,3.49v2.17h7.47c.44,0,.79.14,1.05.42.26.28.39.62.39,1.02v3.43c0,.44-.13.8-.39,1.08-.26.28-.61.42-1.05.42h-7.47v23.5c0,.4-.14.74-.42,1.02-.28.28-.62.42-1.02.42h-4.94Z"/><path class="c" d="M433.97,1016.36c-4.46,0-7.99-1.29-10.6-3.86-2.61-2.57-4.02-6.23-4.22-10.96-.04-.4-.06-.91-.06-1.54s.02-1.11.06-1.48c.16-3.05.85-5.67,2.08-7.86,1.22-2.19,2.92-3.87,5.09-5.06,2.17-1.18,4.72-1.78,7.65-1.78,3.25,0,5.98.67,8.19,2.02,2.21,1.35,3.88,3.21,5,5.6s1.69,5.15,1.69,8.28v1.27c0,.4-.14.74-.42,1.02-.28.28-.64.42-1.08.42h-20v.48c.04,1.41.31,2.7.81,3.89.5,1.18,1.24,2.14,2.23,2.86.98.72,2.16,1.09,3.53,1.09,1.12,0,2.07-.17,2.83-.51s1.39-.73,1.87-1.18c.48-.44.82-.8,1.02-1.08.36-.48.65-.77.87-.87.22-.1.55-.15.99-.15h5.18c.4,0,.73.12.99.36.26.24.37.54.33.9-.04.64-.37,1.43-.99,2.35-.62.92-1.52,1.83-2.68,2.71-1.16.88-2.62,1.62-4.37,2.2-1.75.58-3.75.87-5.99.87ZM427.34,997.38h13.31v-.18c0-1.57-.26-2.94-.78-4.13-.52-1.18-1.29-2.11-2.29-2.77-1-.66-2.21-.99-3.62-.99s-2.61.33-3.61.99c-1,.66-1.76,1.59-2.26,2.77-.5,1.19-.75,2.56-.75,4.13v.18Z"/><path class="c" d="M459.15,1015.75c-.4,0-.74-.14-1.02-.42-.28-.28-.42-.62-.42-1.02v-39.88c0-.4.14-.74.42-1.02.28-.28.62-.42,1.02-.42h5c.4,0,.74.14,1.02.42.28.28.42.62.42,1.02v39.88c0,.4-.14.74-.42,1.02s-.62.42-1.02.42h-5Z"/><path class="c" d="M487.64,1016.36c-2.09,0-3.92-.35-5.51-1.06-1.59-.7-2.9-1.7-3.95-2.98s-1.85-2.8-2.41-4.55c-.56-1.75-.88-3.66-.96-5.75-.04-.72-.06-1.37-.06-1.96s.02-1.23.06-1.96c.08-2.01.39-3.88.93-5.6.54-1.73,1.35-3.24,2.41-4.55,1.06-1.31,2.39-2.32,3.97-3.04s3.42-1.08,5.51-1.08,4.01.37,5.51,1.11c1.51.75,2.76,1.7,3.77,2.86v-13.37c0-.4.13-.74.39-1.02.26-.28.61-.42,1.05-.42h5.12c.4,0,.74.14,1.02.42.28.28.42.62.42,1.02v39.88c0,.4-.14.74-.42,1.02-.28.28-.62.42-1.02.42h-4.76c-.44,0-.79-.14-1.05-.42-.26-.28-.39-.62-.39-1.02v-2.23c-1,1.25-2.28,2.27-3.83,3.07-1.55.8-3.48,1.21-5.81,1.21ZM489.87,1009.91c1.69,0,3.03-.38,4.04-1.14,1-.76,1.75-1.74,2.23-2.92.48-1.18.74-2.4.78-3.64.04-.72.06-1.49.06-2.32s-.02-1.6-.06-2.32c-.04-1.21-.32-2.36-.84-3.46-.52-1.1-1.29-2.02-2.29-2.74-1-.72-2.31-1.08-3.92-1.08-1.69,0-3.02.37-4.01,1.11-.98.74-1.7,1.72-2.14,2.92-.44,1.21-.7,2.53-.78,3.97-.04,1.21-.04,2.41,0,3.61.08,1.45.34,2.77.78,3.98.44,1.21,1.15,2.18,2.14,2.92.98.74,2.32,1.11,4.01,1.11Z"/><path class="c" d="M527.22,1016.36c-2.41,0-4.47-.28-6.17-.84-1.71-.56-3.1-1.26-4.19-2.11-1.08-.84-1.89-1.69-2.41-2.53-.52-.84-.8-1.55-.84-2.11-.04-.44.09-.79.39-1.06.3-.26.63-.39.99-.39h4.76c.16,0,.3.02.42.06s.28.16.48.36c.52.44,1.07.91,1.66,1.39s1.27.89,2.08,1.24c.8.34,1.81.51,3.01.51,1.57,0,2.88-.31,3.95-.93,1.06-.62,1.6-1.51,1.6-2.68,0-.84-.23-1.53-.69-2.05-.46-.52-1.32-.99-2.56-1.42-1.25-.42-3.01-.87-5.3-1.35-2.25-.52-4.12-1.18-5.6-1.99-1.49-.8-2.59-1.81-3.31-3.01-.72-1.21-1.08-2.61-1.08-4.22s.47-3.06,1.41-4.49c.94-1.42,2.35-2.6,4.22-3.52,1.87-.92,4.19-1.38,6.96-1.38,2.17,0,4.06.27,5.66.81s2.94,1.21,4.01,2.02c1.06.8,1.88,1.62,2.44,2.44.56.82.86,1.54.9,2.14.04.44-.08.79-.36,1.05-.28.26-.6.39-.96.39h-4.46c-.2,0-.38-.04-.54-.12-.16-.08-.32-.18-.48-.3-.44-.4-.92-.83-1.45-1.3s-1.15-.85-1.9-1.17c-.74-.32-1.72-.48-2.92-.48-1.53,0-2.69.33-3.49.99-.8.66-1.21,1.5-1.21,2.5,0,.68.19,1.28.57,1.78.38.5,1.15.97,2.32,1.42,1.16.44,2.93.9,5.3,1.39,2.69.48,4.83,1.19,6.42,2.14,1.59.94,2.71,2.03,3.37,3.25.66,1.22.99,2.58.99,4.07,0,1.81-.53,3.43-1.6,4.88-1.06,1.45-2.63,2.58-4.7,3.4-2.07.82-4.63,1.24-7.68,1.24Z"/><path class="c" d="M563.85,1015.75c-2.41,0-4.44-.42-6.08-1.26-1.65-.84-2.87-2.1-3.67-3.77-.8-1.67-1.21-3.75-1.21-6.24v-13.68h-4.76c-.4,0-.74-.14-1.02-.42-.28-.28-.42-.64-.42-1.08v-3.43c0-.4.14-.74.42-1.02.28-.28.62-.42,1.02-.42h4.76v-10c0-.4.13-.74.39-1.02.26-.28.61-.42,1.05-.42h4.88c.4,0,.74.14,1.02.42.28.28.42.62.42,1.02v10h7.53c.4,0,.74.14,1.02.42.28.28.42.62.42,1.02v3.43c0,.44-.14.8-.42,1.08s-.62.42-1.02.42h-7.53v13.07c0,1.65.29,2.93.87,3.86.58.93,1.6,1.39,3.04,1.39h4.16c.4,0,.74.14,1.02.42.28.28.42.62.42,1.03v3.73c0,.4-.14.74-.42,1.02-.28.28-.62.42-1.02.42h-4.88Z"/><path class="c" d="M579.39,1015.75c-.4,0-.74-.14-1.02-.42-.28-.28-.42-.62-.42-1.02v-28.37c0-.44.14-.8.42-1.08.28-.28.62-.42,1.02-.42h4.88c.4,0,.75.14,1.05.42.3.28.45.64.45,1.08v2.47c.92-1.28,2.12-2.27,3.59-2.95,1.46-.68,3.16-1.02,5.09-1.02h2.47c.44,0,.79.14,1.05.42.26.28.39.62.39,1.02v4.34c0,.4-.13.74-.39,1.02s-.61.42-1.05.42h-4.7c-1.93,0-3.43.53-4.49,1.6-1.06,1.06-1.6,2.56-1.6,4.49v16.57c0,.4-.14.74-.42,1.02-.28.28-.64.42-1.08.42h-5.24Z"/><path class="c" d="M603.3,1015.75c-.4,0-.74-.14-1.02-.42-.28-.28-.42-.62-.42-1.02v-5.96c0-.44.14-.8.42-1.08s.62-.42,1.02-.42h6.02c.4,0,.74.14,1.02.42.28.28.42.64.42,1.08v5.96c0,.4-.14.74-.42,1.02-.28.28-.62.42-1.02.42h-6.02Z"/><path class="c" d="M637.16,1015.75c-.4,0-.74-.14-1.02-.42-.28-.28-.42-.62-.42-1.02v-3.07c0-.36.09-.79.27-1.3.18-.5.59-1.01,1.24-1.54l9.52-9.46c2.65-2.09,4.79-3.86,6.42-5.33,1.63-1.47,2.81-2.81,3.55-4.04.74-1.22,1.11-2.44,1.11-3.64,0-1.81-.49-3.27-1.48-4.4-.99-1.12-2.54-1.69-4.67-1.69-1.41,0-2.59.29-3.55.87-.96.58-1.72,1.36-2.26,2.32-.54.96-.91,2.03-1.11,3.19-.08.52-.3.88-.66,1.08-.36.2-.72.3-1.08.3h-5.36c-.36,0-.66-.12-.9-.36s-.36-.52-.36-.84c.04-1.73.4-3.4,1.08-5.03.68-1.63,1.68-3.07,2.98-4.34,1.3-1.27,2.9-2.28,4.79-3.04,1.89-.76,4.02-1.14,6.39-1.14,3.33,0,6.09.56,8.28,1.69,2.19,1.13,3.84,2.65,4.94,4.58,1.1,1.93,1.66,4.1,1.66,6.51,0,1.89-.36,3.62-1.08,5.21-.72,1.59-1.77,3.11-3.13,4.58-1.37,1.47-3.01,2.96-4.94,4.49l-8.55,8.67h17.17c.44,0,.79.13,1.05.39.26.26.39.61.39,1.05v4.28c0,.4-.13.74-.39,1.02-.26.28-.61.42-1.05.42h-28.79Z"/><path class="c" d="M691.92,1016.36c-3.45,0-6.43-.65-8.92-1.96-2.49-1.31-4.42-3.07-5.78-5.3s-2.05-4.73-2.05-7.5c0-1.24.16-2.45.48-3.61.32-1.16.74-2.27,1.27-3.31.52-1.04,1.03-1.98,1.54-2.8.5-.82.95-1.48,1.35-1.96l11.03-15.12c.16-.2.4-.45.72-.75s.76-.45,1.33-.45h5.6c.36,0,.66.13.9.39.24.26.36.57.36.94,0,.16-.03.31-.09.45s-.13.25-.21.33l-8.43,11.69c.36-.12.78-.2,1.26-.24.48-.04.92-.06,1.33-.06,2.01.04,3.92.43,5.72,1.18,1.81.74,3.39,1.76,4.76,3.04,1.36,1.29,2.44,2.79,3.22,4.52.78,1.73,1.18,3.62,1.18,5.66,0,2.65-.66,5.11-1.99,7.38-1.32,2.27-3.22,4.08-5.69,5.45-2.47,1.37-5.43,2.05-8.88,2.05ZM691.85,1009.43c1.45,0,2.78-.3,4-.9,1.22-.6,2.22-1.49,2.98-2.65.76-1.16,1.14-2.61,1.14-4.34s-.38-3.11-1.14-4.28c-.76-1.16-1.76-2.05-2.98-2.65-1.22-.6-2.56-.9-4-.9s-2.78.3-4.01.9c-1.23.6-2.22,1.49-2.98,2.65s-1.14,2.59-1.14,4.28.38,3.17,1.14,4.34c.76,1.17,1.76,2.05,2.98,2.65,1.22.6,2.56.9,4.01.9Z"/><path class="c" d="M735.83,1029.01c-2.93,0-5.34-.38-7.23-1.14-1.89-.76-3.37-1.69-4.46-2.77-1.08-1.08-1.86-2.16-2.32-3.22-.46-1.06-.71-1.9-.75-2.5-.04-.4.09-.75.39-1.05.3-.3.65-.45,1.05-.45h5.24c.4,0,.72.09.96.27.24.18.44.51.6.99.24.52.56,1.09.96,1.69.4.6,1.01,1.12,1.84,1.54.82.42,1.96.63,3.4.63,1.53,0,2.81-.22,3.86-.66,1.04-.44,1.84-1.18,2.38-2.23.54-1.05.81-2.49.81-4.34v-4.1c-.96,1.17-2.2,2.11-3.7,2.83-1.51.72-3.37,1.08-5.57,1.08s-3.99-.35-5.57-1.05-2.9-1.69-3.94-2.95c-1.05-1.26-1.84-2.76-2.38-4.49-.54-1.73-.85-3.63-.93-5.72-.04-1.09-.04-2.17,0-3.25.08-2.01.39-3.88.93-5.6.54-1.73,1.33-3.24,2.38-4.55,1.04-1.31,2.36-2.32,3.94-3.04,1.59-.72,3.44-1.08,5.57-1.08,2.29,0,4.22.43,5.78,1.29,1.57.87,2.85,1.94,3.86,3.22v-2.41c0-.44.14-.8.42-1.08s.62-.42,1.02-.42h4.88c.4,0,.74.14,1.02.42.28.28.42.64.42,1.08l.06,29.04c0,2.89-.54,5.38-1.63,7.47-1.08,2.09-2.72,3.7-4.91,4.85-2.19,1.14-4.99,1.72-8.4,1.72ZM735.53,1009.19c1.65,0,2.97-.36,3.98-1.08,1-.72,1.75-1.67,2.23-2.83.48-1.16.76-2.35.84-3.55.04-.52.06-1.18.06-1.99s-.02-1.45-.06-1.93c-.08-1.24-.36-2.44-.84-3.58-.48-1.14-1.22-2.09-2.23-2.83-1-.74-2.33-1.11-3.98-1.11s-2.97.37-3.98,1.11c-1,.74-1.72,1.72-2.14,2.92-.42,1.21-.67,2.53-.75,3.97-.08.97-.08,1.95,0,2.95.08,1.41.33,2.72.75,3.94.42,1.23,1.13,2.2,2.14,2.92,1,.72,2.33,1.08,3.98,1.08Z"/><path class="c" d="M279.73,1080.63c-.4,0-.74-.14-1.02-.42-.28-.28-.42-.62-.42-1.02v-3.07c0-.36.09-.79.27-1.3.18-.5.59-1.01,1.24-1.54l9.52-9.46c2.65-2.09,4.79-3.86,6.42-5.33,1.63-1.47,2.81-2.81,3.55-4.04.74-1.22,1.11-2.44,1.11-3.64,0-1.81-.49-3.27-1.48-4.4-.99-1.12-2.54-1.69-4.67-1.69-1.41,0-2.59.29-3.55.87-.96.58-1.72,1.36-2.26,2.32-.54.96-.91,2.03-1.11,3.19-.08.52-.3.88-.66,1.08-.36.2-.72.3-1.08.3h-5.36c-.36,0-.66-.12-.9-.36s-.36-.52-.36-.84c.04-1.73.4-3.4,1.08-5.03.68-1.63,1.68-3.07,2.98-4.34,1.3-1.27,2.9-2.28,4.79-3.04,1.89-.76,4.02-1.14,6.39-1.14,3.33,0,6.09.56,8.28,1.69,2.19,1.13,3.84,2.65,4.94,4.58,1.1,1.93,1.66,4.1,1.66,6.51,0,1.89-.36,3.62-1.08,5.21-.72,1.59-1.77,3.11-3.13,4.58-1.37,1.47-3.01,2.96-4.94,4.49l-8.55,8.67h17.17c.44,0,.79.13,1.05.39.26.26.39.61.39,1.05v4.28c0,.4-.13.74-.39,1.02-.26.28-.61.42-1.05.42h-28.79Z"/><path class="c" d="M335.03,1081.23c-2.65,0-5.02-.32-7.11-.97-2.09-.64-3.85-1.54-5.27-2.71s-2.51-2.53-3.25-4.1c-.74-1.57-1.11-3.31-1.11-5.24,0-2.33.57-4.35,1.72-6.05,1.14-1.71,2.64-3.02,4.49-3.95-1.49-.92-2.64-2.11-3.46-3.55-.82-1.45-1.24-3.13-1.24-5.06,0-2.33.59-4.37,1.78-6.11,1.18-1.75,2.91-3.12,5.18-4.13,2.27-1,5.03-1.51,8.28-1.51s6,.49,8.25,1.48,3.96,2.35,5.12,4.1c1.16,1.75,1.75,3.78,1.75,6.11,0,1.93-.4,3.61-1.21,5.06-.8,1.45-1.93,2.65-3.37,3.61,1.89.88,3.39,2.2,4.52,3.95,1.12,1.75,1.69,3.79,1.69,6.11,0,2.53-.65,4.77-1.96,6.72-1.3,1.95-3.21,3.47-5.72,4.58-2.51,1.1-5.53,1.66-9.07,1.66ZM335.03,1074.96c1.57,0,2.98-.27,4.25-.81,1.27-.54,2.27-1.32,3.01-2.32.74-1,1.11-2.19,1.11-3.56s-.37-2.6-1.11-3.58c-.74-.98-1.75-1.75-3.01-2.29-1.26-.54-2.68-.81-4.25-.81s-2.98.27-4.25.81c-1.27.54-2.27,1.3-3.01,2.29-.74.99-1.11,2.18-1.11,3.58s.37,2.55,1.11,3.56c.74,1,1.75,1.78,3.01,2.32,1.26.54,2.68.81,4.25.81ZM335.03,1055.63c1.33-.04,2.54-.3,3.64-.78,1.1-.48,1.99-1.15,2.65-1.99.66-.84.99-1.83.99-2.95s-.31-2.18-.93-3.04-1.49-1.54-2.59-2.02c-1.11-.48-2.36-.72-3.77-.72s-2.66.24-3.77.72c-1.11.48-1.97,1.16-2.59,2.02-.62.86-.93,1.88-.93,3.04s.31,2.17.93,3.01c.62.84,1.48,1.51,2.59,1.99,1.1.48,2.36.72,3.77.72Z"/><path class="c" d="M361.35,1080.63c-.4,0-.74-.14-1.02-.42-.28-.28-.42-.62-.42-1.02v-3.07c0-.36.09-.79.27-1.3.18-.5.59-1.01,1.24-1.54l9.52-9.46c2.65-2.09,4.79-3.86,6.42-5.33,1.63-1.47,2.81-2.81,3.55-4.04.74-1.22,1.11-2.44,1.11-3.64,0-1.81-.49-3.27-1.48-4.4-.99-1.12-2.54-1.69-4.67-1.69-1.41,0-2.59.29-3.55.87-.96.58-1.72,1.36-2.26,2.32-.54.96-.91,2.03-1.11,3.19-.08.52-.3.88-.66,1.08-.36.2-.72.3-1.08.3h-5.36c-.36,0-.66-.12-.9-.36s-.36-.52-.36-.84c.04-1.73.4-3.4,1.08-5.03.68-1.63,1.68-3.07,2.98-4.34s2.9-2.28,4.79-3.04c1.89-.76,4.02-1.14,6.39-1.14,3.33,0,6.09.56,8.28,1.69,2.19,1.13,3.84,2.65,4.94,4.58,1.1,1.93,1.66,4.1,1.66,6.51,0,1.89-.36,3.62-1.08,5.21-.72,1.59-1.77,3.11-3.13,4.58-1.37,1.47-3.01,2.96-4.94,4.49l-8.55,8.67h17.17c.44,0,.79.13,1.05.39.26.26.39.61.39,1.05v4.28c0,.4-.13.74-.39,1.02-.26.28-.61.42-1.05.42h-28.79Z"/><path class="c" d="M416.65,1081.23c-2.85,0-5.28-.42-7.29-1.27-2.01-.84-3.65-2.01-4.94-3.49-1.29-1.48-2.25-3.2-2.89-5.15-.64-1.95-1.02-4.03-1.14-6.24-.04-1.08-.07-2.28-.09-3.58-.02-1.3-.02-2.62,0-3.95.02-1.32.05-2.55.09-3.67.08-2.21.46-4.29,1.14-6.23.68-1.95,1.68-3.64,2.98-5.09,1.3-1.45,2.96-2.59,4.97-3.43,2.01-.84,4.4-1.26,7.17-1.26s5.22.42,7.23,1.26c2.01.84,3.67,1.99,4.97,3.43,1.3,1.45,2.29,3.14,2.95,5.09s1.03,4.03,1.11,6.23c.08,1.13.12,2.35.12,3.67v3.95c0,1.31-.04,2.5-.12,3.58-.08,2.21-.44,4.29-1.08,6.24-.64,1.95-1.61,3.67-2.89,5.15-1.29,1.49-2.94,2.65-4.97,3.49-2.03.84-4.47,1.27-7.32,1.27ZM416.65,1074.3c2.61,0,4.53-.85,5.75-2.56,1.22-1.71,1.86-4.03,1.9-6.96.08-1.16.12-2.34.12-3.53v-3.58c0-1.2-.04-2.35-.12-3.43-.04-2.85-.67-5.15-1.9-6.9-1.23-1.75-3.14-2.62-5.75-2.62s-4.47.87-5.69,2.62c-1.22,1.75-1.88,4.05-1.96,6.9,0,1.08-.01,2.23-.03,3.43-.02,1.21-.02,2.4,0,3.58.02,1.19.03,2.36.03,3.53.08,2.93.74,5.25,1.99,6.96,1.24,1.71,3.13,2.56,5.66,2.56Z"/><path class="c" d="M455.57,1080.63c-.44,0-.79-.14-1.05-.42-.26-.28-.39-.62-.39-1.02v-31.21l-9.16,7.05c-.36.24-.72.33-1.08.27-.36-.06-.68-.27-.96-.63l-2.53-3.25c-.24-.36-.33-.74-.27-1.14s.27-.72.63-.96l13.49-10.42c.24-.2.48-.32.72-.36.24-.04.5-.06.78-.06h5.3c.4,0,.74.14,1.02.42.28.28.42.62.42,1.03v39.28c0,.4-.14.74-.42,1.02-.28.28-.62.42-1.02.42h-5.48Z"/><path class="c" d="M491.53,1080.63c-.4,0-.74-.14-1.02-.42-.28-.28-.42-.62-.42-1.02v-39.22c0-.44.14-.8.42-1.08s.62-.42,1.02-.42h17.47c3.25,0,5.9.49,7.95,1.48,2.05.99,3.56,2.34,4.55,4.07.98,1.73,1.48,3.73,1.48,6.02,0,1.53-.27,2.86-.81,4.01-.54,1.14-1.21,2.08-1.99,2.8-.78.72-1.56,1.29-2.32,1.69,1.57.72,2.95,1.93,4.16,3.61,1.21,1.69,1.81,3.7,1.81,6.02s-.54,4.56-1.63,6.45c-1.08,1.89-2.69,3.36-4.82,4.43-2.13,1.06-4.76,1.6-7.89,1.6h-17.95ZM498.46,1055.75h9.46c2.13,0,3.72-.51,4.79-1.54,1.06-1.02,1.6-2.36,1.6-4.01s-.53-3.01-1.6-3.98c-1.06-.96-2.66-1.45-4.79-1.45h-9.46v10.96ZM498.46,1074.24h10.06c2.17,0,3.81-.59,4.94-1.78,1.12-1.18,1.69-2.62,1.69-4.31s-.57-3.23-1.72-4.4-2.78-1.75-4.91-1.75h-10.06v12.23Z"/><path class="c" d="M534.54,1080.63c-.4,0-.74-.14-1.02-.42-.28-.28-.42-.62-.42-1.02v-28.37c0-.44.14-.8.42-1.08.28-.28.62-.42,1.02-.42h4.88c.4,0,.75.14,1.05.42.3.28.45.64.45,1.08v2.47c.92-1.28,2.12-2.27,3.59-2.95,1.46-.68,3.16-1.02,5.09-1.02h2.47c.44,0,.79.14,1.05.42.26.28.39.62.39,1.02v4.34c0,.4-.13.74-.39,1.02s-.61.42-1.05.42h-4.7c-1.93,0-3.43.53-4.49,1.6-1.06,1.06-1.6,2.56-1.6,4.49v16.57c0,.4-.14.74-.42,1.02-.28.28-.64.42-1.08.42h-5.24Z"/><path class="c" d="M573.7,1081.23c-4.46,0-7.99-1.29-10.6-3.86-2.61-2.57-4.02-6.23-4.22-10.96-.04-.4-.06-.91-.06-1.54s.02-1.11.06-1.48c.16-3.05.85-5.67,2.08-7.86,1.22-2.19,2.92-3.87,5.09-5.06,2.17-1.18,4.72-1.78,7.65-1.78,3.25,0,5.98.67,8.19,2.02,2.21,1.35,3.88,3.21,5,5.6s1.69,5.15,1.69,8.28v1.27c0,.4-.14.74-.42,1.02-.28.28-.64.42-1.08.42h-20v.48c.04,1.41.31,2.7.81,3.89.5,1.18,1.24,2.14,2.23,2.86.98.72,2.16,1.09,3.53,1.09,1.12,0,2.07-.17,2.83-.51s1.39-.73,1.87-1.18c.48-.44.82-.8,1.02-1.08.36-.48.65-.77.87-.87.22-.1.55-.15.99-.15h5.18c.4,0,.73.12.99.36.26.24.37.54.33.9-.04.64-.37,1.43-.99,2.35-.62.92-1.52,1.83-2.68,2.71-1.16.88-2.62,1.62-4.37,2.2s-3.75.87-5.99.87ZM567.07,1062.25h13.31v-.18c0-1.57-.26-2.94-.78-4.13-.52-1.18-1.29-2.11-2.29-2.77-1-.66-2.21-.99-3.62-.99s-2.61.33-3.61.99c-1,.66-1.76,1.59-2.26,2.77-.5,1.19-.75,2.56-.75,4.13v.18Z"/><path class="c" d="M598.82,1080.63c-.4,0-.74-.14-1.02-.42-.28-.28-.42-.62-.42-1.02v-28.43c0-.4.14-.74.42-1.02.28-.28.62-.42,1.02-.42h4.7c.4,0,.74.14,1.02.42.28.28.42.62.42,1.02v2.05c.84-1.13,1.98-2.08,3.4-2.86,1.43-.78,3.12-1.19,5.09-1.23,4.58-.08,7.77,1.71,9.58,5.36.92-1.6,2.26-2.9,4-3.89,1.75-.98,3.69-1.48,5.81-1.48s3.99.48,5.69,1.45c1.71.97,3.05,2.42,4.04,4.37.98,1.95,1.48,4.41,1.48,7.38v17.29c0,.4-.14.74-.42,1.02s-.62.42-1.02.42h-4.94c-.4,0-.74-.14-1.02-.42-.28-.28-.42-.62-.42-1.02v-16.81c0-1.81-.26-3.24-.78-4.31-.52-1.06-1.22-1.82-2.11-2.26-.88-.44-1.87-.66-2.95-.66-.88,0-1.77.22-2.65.66-.88.44-1.61,1.2-2.17,2.26-.56,1.06-.84,2.5-.84,4.31v16.81c0,.4-.14.74-.42,1.02-.28.28-.62.42-1.02.42h-4.94c-.4,0-.74-.14-1.02-.42-.28-.28-.42-.62-.42-1.02v-16.81c0-1.81-.28-3.24-.84-4.31-.56-1.06-1.29-1.82-2.17-2.26-.88-.44-1.83-.66-2.83-.66-.92,0-1.83.23-2.71.69-.88.46-1.61,1.22-2.17,2.26s-.84,2.47-.84,4.28v16.81c0,.4-.14.74-.42,1.02s-.62.42-1.02.42h-5.06Z"/><path class="c" d="M667.61,1081.23c-4.46,0-7.99-1.29-10.6-3.86-2.61-2.57-4.02-6.23-4.22-10.96-.04-.4-.06-.91-.06-1.54s.02-1.11.06-1.48c.16-3.05.85-5.67,2.08-7.86,1.22-2.19,2.92-3.87,5.09-5.06,2.17-1.18,4.72-1.78,7.65-1.78,3.25,0,5.98.67,8.19,2.02,2.21,1.35,3.88,3.21,5,5.6s1.69,5.15,1.69,8.28v1.27c0,.4-.14.74-.42,1.02-.28.28-.64.42-1.08.42h-20v.48c.04,1.41.31,2.7.81,3.89.5,1.18,1.24,2.14,2.23,2.86.98.72,2.16,1.09,3.53,1.09,1.12,0,2.07-.17,2.83-.51s1.39-.73,1.87-1.18c.48-.44.82-.8,1.02-1.08.36-.48.65-.77.87-.87.22-.1.55-.15.99-.15h5.18c.4,0,.73.12.99.36.26.24.37.54.33.9-.04.64-.37,1.43-.99,2.35-.62.92-1.52,1.83-2.68,2.71-1.16.88-2.62,1.62-4.37,2.2s-3.75.87-5.99.87ZM660.98,1062.25h13.31v-.18c0-1.57-.26-2.94-.78-4.13-.52-1.18-1.29-2.11-2.29-2.77-1-.66-2.21-.99-3.62-.99s-2.61.33-3.61.99c-1,.66-1.76,1.59-2.26,2.77-.5,1.19-.75,2.56-.75,4.13v.18Z"/><path class="c" d="M692.73,1080.63c-.4,0-.74-.14-1.02-.42-.28-.28-.42-.62-.42-1.02v-28.43c0-.4.14-.74.42-1.02.28-.28.62-.42,1.02-.42h4.94c.4,0,.74.14,1.02.42.28.28.42.62.42,1.02v2.47c1.04-1.28,2.38-2.36,4.01-3.22,1.63-.86,3.64-1.29,6.05-1.29s4.58.55,6.39,1.66,3.2,2.66,4.19,4.67c.98,2.01,1.48,4.42,1.48,7.23v16.93c0,.4-.14.74-.42,1.02-.28.28-.62.42-1.02.42h-5.3c-.4,0-.74-.14-1.02-.42-.28-.28-.42-.62-.42-1.02v-16.57c0-2.33-.57-4.16-1.72-5.48-1.14-1.33-2.8-1.99-4.97-1.99s-3.76.66-5,1.99c-1.24,1.33-1.87,3.15-1.87,5.48v16.57c0,.4-.14.74-.42,1.02-.28.28-.62.42-1.02.42h-5.3Z"/><path class="b" d="M211.96,267.68c0-65.42-107.43-84.11-111.89-135.69-1.51-17.41,22.18-33.96,39.64-33.19,113.29,5.02,191.68,115.05,191.68,189,0,47.86-47.44,88.24-47.44,129.78,0,12.64,8.32,24.38,26.38,24.38,29.8,0,144.48-60.5,144.48-102.04,0-54.18-47.86-102.94-47.86-162.54,0-48.77,23.48-72.24,77.66-72.24,115.39,0,101.3,83.98,125.69,156.23,15.41,46.23,51.47,123.37,108.08,145,16.02,6.12,32.45-8.18,28.34-24.83-5.33-21.57-9.39-41.01-11-65.99-4.73-73.69,57.27-210.41,104.68-210.41,33.6,0,59.6,5.42,59.6,41.54,0,66.83-46.54,121.01-46.54,186.93,0,37.38,12.25,73.02,6.68,110.53-8.35,56.31-37.93,106.22-64.61,155.55-18.44,34.1-38.11,72.85-64.08,103.64-14.86,17.62-36.87,27.61-59.92,27.61h0c-106.57,0-117.69-102.04-117.69-174.28,0-27.53,20.59-48.24,29.3-72.52,8.1-22.58-4.9-41.49-28.88-41.49-227.27,0-101.27,288.3-250.27,288.3-63.77,0-95.01-61.19-111.8-114.15-21.64-68.25-46.63-149.44-44.46-221.81,1.52-50.66,64.22-75.55,64.22-127.29Z"/><path class="d" d="M693.47,681.79h-89.14c-9.43,0-17.84-6.33-20.45-15.38l-83.88-290.66-83.88,290.66c-2.61,9.06-11.02,15.38-20.45,15.38h-89.14c-9.43,0-17.84-6.33-20.45-15.38L141.55,165.56c-1.22-4.24-.4-8.7,2.25-12.22,2.65-3.53,6.71-5.55,11.12-5.55h97.39c6.16,0,11.66,4.13,13.37,10.05l85.42,295.99,85.42-295.99c1.71-5.92,7.21-10.06,13.37-10.06h100.23c6.16,0,11.66,4.13,13.37,10.05l85.42,295.99,85.42-295.99c1.71-5.92,7.21-10.06,13.37-10.06h97.39c4.41,0,8.47,2.02,11.12,5.55s3.47,7.98,2.25,12.22l-144.53,500.84c-2.61,9.06-11.02,15.38-20.45,15.38ZM500,347.09c6.26,0,11.63,4.04,13.37,10.06l87.81,304.26c.4,1.4,1.7,2.37,3.16,2.37h89.14c1.46,0,2.75-.98,3.16-2.37l143.02-495.62h-88.89l-88.49,306.63h0c-1.74,6.02-7.11,10.06-13.37,10.06h0c-6.26,0-11.63-4.04-13.37-10.06l-88.49-306.63h-94.08l-88.49,306.64c-1.74,6.01-7.11,10.06-13.37,10.06-6.26,0-11.63-4.04-13.37-10.06l-88.49-306.64h-88.89l143.02,495.62c.4,1.4,1.7,2.37,3.16,2.37h89.14c1.46,0,2.75-.98,3.16-2.37l87.81-304.26c1.74-6.02,7.11-10.06,13.37-10.06ZM653.62,469.93h0,0Z"/><path class="d" d="M177.22,814.5c0-10.77-16.45-13.68-16.45-22.42,0-2.91,1.89-4.8,4.81-4.8,11.65,0,32.03,22.27,32.03,33.05,0,7.72-6.84,11.65-6.84,18.34,0,2.04,1.02,3.93,3.93,3.93,4.81,0,23.29-9.75,23.29-16.45,0-8.73-7.72-16.6-7.72-26.21,0-7.86,3.78-11.65,12.52-11.65,14.56,0,14.56,13.54,18.49,25.19,2.91,8.73,13.54,24.31,23.29,24.31,0-5.82-2.91-9.75-2.91-15.58,0-10.63,4.8-33.92,18.49-33.92,4.8,0,9.61.87,9.61,6.7,0,10.77-6.7,19.51-6.7,30.14,0,5.82.87,10.63.87,15.58,0,8.73-19.36,45.57-26.21,48.48h-4.8c-14.56,0-18.49-16.45-18.49-28.1,0-5.82,4.95-9.75,4.95-15.58q0-2.91-2.91-2.91c-33.05,0-18.49,46.59-42.8,46.59-19.36,0-20.38-33.05-24.17-45.57q-1.02-3.93-1.02-8.73c0-7.86,8.73-11.65,8.73-20.38Z"/><path class="d" d="M317.26,830.96c0-7.72-4.81-14.56-4.81-22.27,0-17.47,21.26-22.42,35.81-22.42,34.94,0,52.12,29.12,52.12,60.27,0,27.08-25.91,44.55-52.12,44.55-21.26,0-45.57-13.54-45.57-37.85,0-11.65,14.56-11.65,14.56-22.27ZM349.29,872.74c11.65,0,34.94-3.93,34.94-20.38,0-6.84-5.82-11.65-7.72-17.47-5.82-14.56-8.73-30.14-27.22-30.14-8.73,0-20.38,2.91-20.38,13.54v1.02c0,1.02,1.02,3.93,1.02,3.93.87,2.91,6.7,13.54,7.72,16.45v2.91c0,7.72-8.74,9.75-8.74,17.47,0,9.75,12.67,12.67,20.38,12.67Z"/><path class="d" d="M526.89,880.31l-.58-12.37c-.15-1.75-.15-3.2-.15-3.93v-1.02c0-12.67,10.63-18.49,10.63-29.12,0-13.54-9.75-25.19-9.75-37.85,0-2.91,2.04-7.72,5.82-7.72h53.43c4.8,0,5.82,4.8,5.82,8.73,0,2.91-2.91,7.72-6.84,7.72h-32.9c-2.91,0-4.95,6.84-4.95,8.73,0,6.84,2.91,19.36,11.65,19.36,4.95,0,10.77-2.91,16.6-2.91s13.54,6.84,13.54,12.67c0,15.58-39.75,7.72-39.75,23.29,0,1.89.87,3.93,1.89,4.81,1.02,0,1.89,1.02,1.89,1.02h34.94c3.93,0,5.82,4.8,5.82,7.72,0,4.95-1.89,9.75-6.7,9.75h-54.45c-2.91,0-4.81-2.91-5.82-4.8,0-.73,0-2.18-.15-4.08Z"/><path class="d" d="M705.38,868.06c-8.8,11-39.02,9.37-29.71-5.25,5.86-9.18,7.48-11.85,15.72-10.48,20.97,3.49,27.6-3.49,27.6-11.46,0-18.23-40.89-36.57-53.35-19.18-5.69,7.94,4.8,14.92.52,25.14-3.83,9.12-19.05,13.05-14.55,24.52,4.55,11.62,16.49,18.68,28.32,20.75,14.29,2.52,31.34-.88,37.68-13.57,5.23-10.48-5.25-19.22-12.23-10.48ZM684.42,827.88c4.8,0,15.28,4.71,15.28,8.2s-3.35,5.22-9.18,5.22-7.83-2.92-8.58-5.83c-.71-2.78-3.32-7.58,2.49-7.58Z"/><path class="d" d="M737.69,870.7c4.8,0,12.67,4.95,12.67,10.77s-6.84,8.73-12.67,8.73-6.84-4.95-6.84-9.75,1.02-9.75,6.84-9.75Z"/><path class="d" d="M762.58,856.14c-.87-2.91-.87-3.79-.87-6.7,0-6.84,6.7-11.65,6.7-17.47,0-15.58-25.19-22.42-25.19-37.85,0-5.82,3.93-5.82,8.73-5.82,13.54,0,16.45,19.36,22.28,28.1,7.86,11.65,20.38,18.49,18.49,33.92,0,2.04,3.93,1.02,3.93,1.02,5.82,0,10.63-3.93,10.63-9.76,0-8.73-7.72-14.56-7.72-23.29,0-10.63,3.79-29.99,17.47-29.99,3.79,0,8.73.87,8.73,5.82v1.89c-2.91,9.75-7.86,19.36-7.86,30.14,0,8.74,8.74,14.56,8.74,22.28,0,10.63-16.45,11.65-22.27,18.49-7.72,9.61-5.82,22.27-20.38,22.27-5.82,0-9.75-1.89-12.67-6.84-.87-3.78-7.72-22.27-8.73-26.21Z"/><path class="d" d="M825.03,870.7c4.8,0,12.67,4.95,12.67,10.77s-6.84,8.73-12.67,8.73-6.84-4.95-6.84-9.75,1.02-9.75,6.84-9.75Z"/><path class="d" d="M511.38,839.2c.08-4.54-3.77-10.36-8.8-10.69-6.39-.42-15.75.53-21.61,2.08-5.99.31-12.25,7.36-12.25,12.75,0,4.81,3.45,5.51,12.1,5.91,5.49.25,9.89,3.12,9.91,7.32v.6c0,12.67-15.57,16.45-25.33,16.45-6.7,0-21.11-1.89-21.11-10.63,0-5.82,5.82-8.73,5.82-14.56,0-9.76-9.75-15.72-9.75-26.35s13.25-15.85,21.98-15.58c13.54.43,13.33,9.31,20.35,9.17,3.3-.07,6.21-2.12,7.84-4.99,9.35-16.47-17.19-24.41-28.19-24.41-13.54,0-39.45,4.95-39.45,23.29,0,8.73,6.84,16.6,6.84,25.33,0,9.61-13.54,10.63-13.54,21.26,0,22.42,24.02,34.94,43.38,34.94,21.4,0,44.55-10.63,44.55-34.94,0-.03,0-.06,0-.09-.02-5.06,1.96-9.84,5.51-13.45,1.05-1.07,1.73-2.24,1.75-3.41Z"/></svg>