<?xml version="1.0" encoding="UTF-8"?><svg id="a" xmlns="http://www.w3.org/2000/svg" viewBox="0 0 1000 1000"><defs><style>.b{fill:#87b9b4;}.b,.c{stroke-width:0px;}.c{fill:#9b1469;}</style></defs><path class="b" d="M211.96,271.85c0-65.42-107.43-84.11-111.89-135.69-1.51-17.41,22.18-33.96,39.64-33.19,113.29,5.02,191.68,115.05,191.68,189,0,47.86-47.44,88.24-47.44,129.78,0,12.64,8.32,24.38,26.38,24.38,29.8,0,144.48-60.5,144.48-102.04,0-54.18-47.86-102.94-47.86-162.54,0-48.77,23.48-72.24,77.66-72.24,115.39,0,101.3,83.98,125.69,156.23,15.41,46.23,51.47,123.37,108.08,145,16.02,6.12,32.45-8.18,28.34-24.83-5.33-21.57-9.39-41.01-11-65.99-4.73-73.69,57.27-210.41,104.68-210.41,33.6,0,59.6,5.42,59.6,41.54,0,66.83-46.54,121.01-46.54,186.93,0,37.38,12.25,73.02,6.68,110.53-8.35,56.31-37.93,106.22-64.61,155.55-18.44,34.1-38.11,72.85-64.08,103.64-14.86,17.62-36.87,27.61-59.92,27.61h0c-106.57,0-117.69-102.04-117.69-174.28,0-27.53,20.59-48.24,29.3-72.52,8.1-22.58-4.9-41.49-28.88-41.49-227.27,0-101.27,288.3-250.27,288.3-63.77,0-95.01-61.19-111.8-114.15-21.64-68.25-46.63-149.44-44.46-221.81,1.52-50.66,64.22-75.55,64.22-127.29Z"/><path class="c" d="M693.47,685.96h-89.14c-9.43,0-17.84-6.33-20.45-15.38l-83.88-290.66-83.88,290.66c-2.61,9.06-11.02,15.38-20.45,15.38h-89.14c-9.43,0-17.84-6.33-20.45-15.38L141.55,169.73c-1.22-4.24-.4-8.7,2.25-12.22,2.65-3.53,6.71-5.55,11.12-5.55h97.39c6.16,0,11.66,4.13,13.37,10.05l85.42,295.99,85.42-295.99c1.71-5.92,7.21-10.06,13.37-10.06h100.23c6.16,0,11.66,4.13,13.37,10.05l85.42,295.99,85.42-295.99c1.71-5.92,7.21-10.06,13.37-10.06h97.39c4.41,0,8.47,2.02,11.12,5.55,2.65,3.53,3.47,7.98,2.25,12.22l-144.53,500.84c-2.61,9.06-11.02,15.38-20.45,15.38ZM500,351.27c6.26,0,11.63,4.04,13.37,10.06l87.81,304.26c.4,1.4,1.7,2.37,3.16,2.37h89.14c1.46,0,2.75-.98,3.16-2.37l143.02-495.62h-88.89l-88.49,306.63h0c-1.74,6.02-7.11,10.06-13.37,10.06h0c-6.26,0-11.63-4.04-13.37-10.06l-88.49-306.63h-94.08l-88.49,306.64c-1.74,6.01-7.11,10.06-13.37,10.06-6.26,0-11.63-4.04-13.37-10.06l-88.49-306.64h-88.89l143.02,495.62c.4,1.4,1.7,2.37,3.16,2.37h89.14c1.46,0,2.75-.98,3.16-2.37l87.81-304.26c1.74-6.02,7.11-10.06,13.37-10.06ZM653.62,474.1h0,0Z"/><path class="c" d="M177.22,818.68c0-10.77-16.45-13.68-16.45-22.42,0-2.91,1.89-4.8,4.81-4.8,11.65,0,32.03,22.27,32.03,33.05,0,7.72-6.84,11.65-6.84,18.34,0,2.04,1.02,3.93,3.93,3.93,4.81,0,23.29-9.75,23.29-16.45,0-8.73-7.72-16.6-7.72-26.21,0-7.86,3.78-11.65,12.52-11.65,14.56,0,14.56,13.54,18.49,25.19,2.91,8.73,13.54,24.31,23.29,24.31,0-5.82-2.91-9.75-2.91-15.58,0-10.63,4.8-33.92,18.49-33.92,4.8,0,9.61.87,9.61,6.7,0,10.77-6.7,19.51-6.7,30.14,0,5.82.87,10.63.87,15.58,0,8.73-19.36,45.57-26.21,48.48h-4.8c-14.56,0-18.49-16.45-18.49-28.1,0-5.82,4.95-9.75,4.95-15.58q0-2.91-2.91-2.91c-33.05,0-18.49,46.59-42.8,46.59-19.36,0-20.38-33.05-24.17-45.57q-1.02-3.93-1.02-8.73c0-7.86,8.73-11.65,8.73-20.38Z"/><path class="c" d="M317.26,835.13c0-7.72-4.81-14.56-4.81-22.27,0-17.47,21.26-22.42,35.81-22.42,34.94,0,52.12,29.12,52.12,60.27,0,27.08-25.91,44.55-52.12,44.55-21.26,0-45.57-13.54-45.57-37.85,0-11.65,14.56-11.65,14.56-22.27ZM349.29,876.91c11.65,0,34.94-3.93,34.94-20.38,0-6.84-5.82-11.65-7.72-17.47-5.82-14.56-8.73-30.14-27.22-30.14-8.73,0-20.38,2.91-20.38,13.54v1.02c0,1.02,1.02,3.93,1.02,3.93.87,2.91,6.7,13.54,7.72,16.45v2.91c0,7.72-8.74,9.75-8.74,17.47,0,9.75,12.67,12.67,20.38,12.67Z"/><path class="c" d="M526.89,884.48l-.58-12.37c-.15-1.75-.15-3.2-.15-3.93v-1.02c0-12.67,10.63-18.49,10.63-29.12,0-13.54-9.75-25.19-9.75-37.85,0-2.91,2.04-7.72,5.82-7.72h53.43c4.8,0,5.82,4.8,5.82,8.73,0,2.91-2.91,7.72-6.84,7.72h-32.9c-2.91,0-4.95,6.84-4.95,8.73,0,6.84,2.91,19.36,11.65,19.36,4.95,0,10.77-2.91,16.6-2.91s13.54,6.84,13.54,12.67c0,15.58-39.75,7.72-39.75,23.29,0,1.89.87,3.93,1.89,4.81,1.02,0,1.89,1.02,1.89,1.02h34.94c3.93,0,5.82,4.8,5.82,7.72,0,4.95-1.89,9.75-6.7,9.75h-54.45c-2.91,0-4.81-2.91-5.82-4.8,0-.73,0-2.18-.15-4.08Z"/><path class="c" d="M705.38,872.23c-8.8,11-39.02,9.38-29.7-5.24,5.86-9.18,7.48-11.85,15.73-10.47,20.96,3.5,27.59-3.5,27.59-11.47,0-18.23-40.9-36.57-53.35-19.19-5.69,7.94,4.79,14.93.52,25.13-3.83,9.13-19.04,13.06-14.55,24.53,4.55,11.62,16.48,18.68,28.32,20.76,14.29,2.52,31.34-.89,37.67-13.56,5.24-10.49-5.24-19.22-12.23-10.49ZM684.42,832.05c4.8,0,15.27,4.71,15.27,8.2s-3.36,5.22-9.18,5.22-7.84-2.93-8.59-5.83c-.71-2.78-3.32-7.58,2.5-7.58Z"/><path class="c" d="M737.69,874.87c4.8,0,12.67,4.95,12.67,10.77s-6.84,8.73-12.67,8.73-6.84-4.95-6.84-9.75,1.02-9.75,6.84-9.75Z"/><path class="c" d="M762.58,860.31c-.87-2.91-.87-3.79-.87-6.7,0-6.84,6.7-11.65,6.7-17.47,0-15.58-25.19-22.42-25.19-37.85,0-5.82,3.93-5.82,8.73-5.82,13.54,0,16.45,19.36,22.28,28.1,7.86,11.65,20.38,18.49,18.49,33.92,0,2.04,3.93,1.02,3.93,1.02,5.82,0,10.63-3.93,10.63-9.76,0-8.73-7.72-14.56-7.72-23.29,0-10.63,3.79-29.99,17.47-29.99,3.79,0,8.73.87,8.73,5.82v1.89c-2.91,9.75-7.86,19.36-7.86,30.14,0,8.74,8.74,14.56,8.74,22.28,0,10.63-16.45,11.65-22.27,18.49-7.72,9.61-5.82,22.27-20.38,22.27-5.82,0-9.75-1.89-12.67-6.84-.87-3.78-7.72-22.27-8.73-26.21Z"/><path class="c" d="M825.03,874.87c4.8,0,12.67,4.95,12.67,10.77s-6.84,8.73-12.67,8.73-6.84-4.95-6.84-9.75,1.02-9.75,6.84-9.75Z"/><path class="c" d="M511.38,843.37c.08-4.54-3.77-10.36-8.8-10.69-6.39-.42-15.75.53-21.61,2.08-5.99.31-12.25,7.36-12.25,12.75,0,4.81,3.45,5.51,12.1,5.91,5.49.25,9.89,3.12,9.91,7.32v.6c0,12.67-15.57,16.45-25.33,16.45-6.7,0-21.11-1.89-21.11-10.63,0-5.82,5.82-8.73,5.82-14.56,0-9.76-9.75-15.72-9.75-26.35s13.25-15.85,21.98-15.58c13.54.43,13.33,9.31,20.35,9.17,3.3-.07,6.21-2.12,7.84-4.99,9.35-16.47-17.19-24.41-28.19-24.41-13.54,0-39.45,4.95-39.45,23.29,0,8.73,6.84,16.6,6.84,25.33,0,9.61-13.54,10.63-13.54,21.26,0,22.42,24.02,34.94,43.38,34.94,21.4,0,44.55-10.63,44.55-34.94,0-.03,0-.06,0-.09-.02-5.06,1.96-9.84,5.51-13.45,1.05-1.07,1.73-2.24,1.75-3.41Z"/></svg>