<?xml version="1.0" encoding="UTF-8"?><svg id="a" xmlns="http://www.w3.org/2000/svg" viewBox="0 0 1000 830"><defs><style>.b{fill:#87b9b4;}.b,.c{stroke-width:0px;}.c{fill:#9b1469;}</style></defs><path class="b" d="M211.96,273.83c0-65.42-107.43-84.11-111.89-135.69-1.51-17.41,22.18-33.96,39.64-33.19,113.29,5.02,191.68,115.05,191.68,189,0,47.86-47.44,88.24-47.44,129.78,0,12.64,8.32,24.38,26.38,24.38,29.8,0,144.48-60.5,144.48-102.04,0-54.18-47.86-102.94-47.86-162.54,0-48.77,23.48-72.24,77.66-72.24,115.39,0,101.3,83.98,125.69,156.23,15.41,46.23,51.47,123.37,108.08,145,16.02,6.12,32.45-8.18,28.34-24.83-5.33-21.57-9.39-41.01-11-65.99-4.73-73.69,57.27-210.41,104.68-210.41,33.6,0,59.6,5.42,59.6,41.54,0,66.83-46.54,121.01-46.54,186.93,0,37.38,12.25,73.02,6.68,110.53-8.35,56.31-37.93,106.22-64.61,155.55-18.44,34.1-38.11,72.85-64.08,103.64-14.86,17.62-36.87,27.61-59.92,27.61h0c-106.57,0-117.69-102.04-117.69-174.28,0-27.53,20.59-48.24,29.3-72.52,8.1-22.58-4.9-41.49-28.88-41.49-227.27,0-101.27,288.3-250.27,288.3-63.77,0-95.01-61.19-111.8-114.15-21.64-68.25-46.63-149.44-44.46-221.81,1.52-50.66,64.22-75.55,64.22-127.29Z"/><path class="c" d="M693.47,687.94h-89.14c-9.43,0-17.84-6.33-20.45-15.38l-83.88-290.66-83.88,290.66c-2.61,9.06-11.02,15.38-20.45,15.38h-89.14c-9.43,0-17.84-6.33-20.45-15.38L141.55,171.71c-1.22-4.24-.4-8.7,2.25-12.22,2.65-3.53,6.71-5.55,11.12-5.55h97.39c6.16,0,11.66,4.13,13.37,10.05l85.42,295.99,85.42-295.99c1.71-5.92,7.21-10.06,13.37-10.06h100.23c6.16,0,11.66,4.13,13.37,10.05l85.42,295.99,85.42-295.99c1.71-5.92,7.21-10.06,13.37-10.06h97.39c4.41,0,8.47,2.02,11.12,5.55,2.65,3.53,3.47,7.98,2.25,12.22l-144.53,500.84c-2.61,9.06-11.02,15.38-20.45,15.38ZM500,353.25c6.26,0,11.63,4.04,13.37,10.06l87.81,304.26c.4,1.4,1.7,2.37,3.16,2.37h89.14c1.46,0,2.75-.98,3.16-2.37l143.02-495.62h-88.89l-88.49,306.63h0c-1.74,6.02-7.11,10.06-13.37,10.06h0c-6.26,0-11.63-4.04-13.37-10.06l-88.49-306.63h-94.08l-88.49,306.64c-1.74,6.01-7.11,10.06-13.37,10.06-6.26,0-11.63-4.04-13.37-10.06l-88.49-306.64h-88.89l143.02,495.62c.4,1.4,1.7,2.37,3.16,2.37h89.14c1.46,0,2.75-.98,3.16-2.37l87.81-304.26c1.74-6.02,7.11-10.06,13.37-10.06ZM653.62,476.08h0,0Z"/></svg>